<svg width="30" height="42" viewBox="0 0 30 42" fill="none" xmlns="http://www.w3.org/2000/svg">
<g clip-path="url(#clip0_6_1345)">
<path d="M29.9998 13.8571C29.9998 18.1965 26.482 21.7143 22.1426 21.7143C17.8032 21.7143 14.2855 18.1965 14.2855 13.8571C14.2855 9.51776 17.8032 6 22.1426 6C26.482 6 29.9998 9.51776 29.9998 13.8571ZM22.1426 8.85714C21.7482 8.85714 21.4283 9.17694 21.4283 9.57143V15.2857C21.4283 15.6802 21.7482 16 22.1426 16C22.537 16 22.8569 15.6802 22.8569 15.2857V9.57143C22.8569 9.17694 22.537 8.85714 22.1426 8.85714ZM22.1426 19.0357C22.6358 19.0357 23.0355 18.636 23.0355 18.1429C23.0355 17.6497 22.6358 17.25 22.1426 17.25C21.6495 17.25 21.2498 17.6497 21.2498 18.1429C21.2498 18.636 21.6495 19.0357 22.1426 19.0357ZM26.4283 25.6429V22.0969C27.2155 21.6866 27.9365 21.1669 28.5712 20.5577V25.6429C28.5712 28.207 26.4925 30.2857 23.9283 30.2857H15.7319L8.5693 35.6439C7.77954 36.2346 6.66047 36.0731 6.06977 35.2834C5.83884 34.9746 5.71404 34.5994 5.71404 34.2141L5.71291 30.2857H4.64261C2.07843 30.2857 -0.000244141 28.207 -0.000244141 25.6429V13.5C-0.000244141 10.9358 2.07843 8.85714 4.64261 8.85714H14.3166C13.893 9.51887 13.5509 10.2379 13.3048 11H4.64261C3.2619 11 2.14261 12.1193 2.14261 13.5V25.6429C2.14261 27.0236 3.2619 28.1429 4.64261 28.1429H7.85517L7.8567 33.5009L15.019 28.1429H23.9283C25.309 28.1429 26.4283 27.0236 26.4283 25.6429Z" fill="#E21414"/>
</g>
<defs>
<clipPath id="clip0_6_1345">
<rect width="30" height="42" fill="white" transform="translate(-0.000244141)"/>
</clipPath>
</defs>
</svg>
