<svg width="30" height="42" viewBox="0 0 30 42" fill="none" xmlns="http://www.w3.org/2000/svg">
<path d="M6.58806 25.1956L3.05445 40.036C2.68158 41.6021 4.5271 42.6729 5.59163 41.5082L29.5794 15.2628C30.4942 14.2618 29.8185 12.5978 28.4973 12.5978H19.5794L22.921 2.07269C23.2448 1.05301 22.5219 0 21.4982 0H7.49994C6.83031 0 6.2418 0.466076 6.05785 1.14211L0.0586207 23.1883C-0.215124 24.1942 0.504263 25.1956 1.50071 25.1956H6.58806ZM16.0759 13.6745C15.7521 14.6942 16.4748 15.7472 17.4987 15.7472H24.9793L7.3324 35.055L9.964 24.0028C10.2007 23.0088 9.4847 22.0461 8.50897 22.0461H3.48906L8.63123 3.14945H19.4173L16.0759 13.6745Z" fill="#FCB90D"/>
</svg>
