<svg width="24" height="25" viewBox="0 0 24 25" fill="none" xmlns="http://www.w3.org/2000/svg">
<path fill-rule="evenodd" clip-rule="evenodd" d="M12 10.8802L18.3512 4.52899C18.7488 4.13141 19.3876 4.12569 19.7782 4.51621C20.1687 4.90673 20.163 5.54562 19.7654 5.9432L13.4142 12.2944L19.7654 18.6456C20.163 19.0431 20.1687 19.682 19.7782 20.0726C19.3877 20.4631 18.7488 20.4574 18.3512 20.0598L12 13.7086L5.64882 20.0598C5.25123 20.4574 4.61235 20.4631 4.22182 20.0726C3.8313 19.682 3.83702 19.0431 4.2346 18.6456L10.5858 12.2944L4.23461 5.9432C3.83703 5.54562 3.8313 4.90673 4.22183 4.51621C4.61235 4.12569 5.25124 4.13141 5.64882 4.52899L12 10.8802Z" fill="#202656"/>
</svg>
