<svg width="24" height="25" viewBox="0 0 24 25" fill="none" xmlns="http://www.w3.org/2000/svg">
<path fill-rule="evenodd" clip-rule="evenodd" d="M19 6.29437H5C4.44772 6.29437 4 6.74209 4 7.29437C4 7.84666 4.44772 8.29437 5 8.29437H19C19.5523 8.29437 20 7.84666 20 7.29437C20 6.74209 19.5523 6.29437 19 6.29437ZM19 11.2944H5C4.44772 11.2944 4 11.7421 4 12.2944C4 12.8467 4.44772 13.2944 5 13.2944H19C19.5523 13.2944 20 12.8467 20 12.2944C20 11.7421 19.5523 11.2944 19 11.2944ZM5 16.2944H19C19.5523 16.2944 20 16.7421 20 17.2944C20 17.8467 19.5523 18.2944 19 18.2944H5C4.44772 18.2944 4 17.8467 4 17.2944C4 16.7421 4.44772 16.2944 5 16.2944Z" fill="#202656"/>
</svg>
