<svg xmlns="http://www.w3.org/2000/svg" xmlns:xlink="http://www.w3.org/1999/xlink"><symbol fill="none" viewBox="0 0 24 24" id="checker-checked" xmlns="http://www.w3.org/2000/svg"><rect x="1" y="1" width="22" height="22" rx="8" stroke="#202656" stroke-width="2"/><path d="M7.311 10.738a1 1 0 00-1.463 1.364l1.463-1.364zm4.077 5.842l-.731.682a1 1 0 001.566-.132l-.835-.55zm6.868-8.61a1 1 0 10-1.67-1.1l1.67 1.1zM5.848 12.102l4.809 5.16 1.463-1.364-4.809-5.16-1.463 1.364zm6.375 5.028l6.033-9.16-1.67-1.1-6.033 9.16 1.67 1.1z" fill="#202656"/></symbol><symbol fill="none" viewBox="0 0 24 24" id="checker-loading" xmlns="http://www.w3.org/2000/svg"><rect x="1" y="1" width="22" height="22" rx="8" stroke="#F4F5F8" stroke-width="2"/></symbol><symbol fill="none" viewBox="0 0 24 24" id="checker-unchecked" xmlns="http://www.w3.org/2000/svg"><rect x="1" y="1" width="22" height="22" rx="8" stroke="#ADB3BD" stroke-width="2"/></symbol><symbol fill="none" viewBox="0 0 24 21" id="logo-dark" xmlns="http://www.w3.org/2000/svg"><path d="M4.043 7.031l2.595-1.44L5.189 3.18h13.622L12.002 14.53l-1.448-2.417-2.595 1.444 4.043 6.737L24 .294H0l4.043 6.737z" fill="#fff"/></symbol><symbol fill="none" viewBox="0 0 24 21" id="logo-light" xmlns="http://www.w3.org/2000/svg"><path d="M4.043 7.031l2.595-1.44L5.189 3.18h13.622L12.002 14.53l-1.448-2.417-2.595 1.444 4.043 6.737L24 .294H0l4.043 6.737z" fill="#202656"/></symbol><symbol fill="none" viewBox="0 0 24 24" id="pin-active" xmlns="http://www.w3.org/2000/svg"><path d="M11.049 2.927c.3-.921 1.603-.921 1.902 0l1.519 4.674a1 1 0 00.95.69h4.915c.969 0 1.371 1.24.588 1.81l-3.976 2.888a1 1 0 00-.363 1.118l1.518 4.674c.3.922-.755 1.688-1.538 1.118l-3.976-2.888a1 1 0 00-1.176 0l-3.976 2.888c-.783.57-1.838-.197-1.538-1.118l1.518-4.674a1 1 0 00-.363-1.118l-3.976-2.888c-.783-.57-.38-1.81.588-1.81h4.914a1 1 0 00.951-.69l1.519-4.674z" fill="#202656"/></symbol><symbol fill="none" viewBox="0 0 24 24" id="pin-deactive" xmlns="http://www.w3.org/2000/svg"><path d="M11.049 2.927c.3-.921 1.603-.921 1.902 0l1.519 4.674a1 1 0 00.95.69h4.915c.969 0 1.371 1.24.588 1.81l-3.976 2.888a1 1 0 00-.363 1.118l1.518 4.674c.3.922-.755 1.688-1.538 1.118l-3.976-2.888a1 1 0 00-1.176 0l-3.976 2.888c-.783.57-1.838-.197-1.538-1.118l1.518-4.674a1 1 0 00-.363-1.118l-3.976-2.888c-.783-.57-.38-1.81.588-1.81h4.914a1 1 0 00.951-.69l1.519-4.674z" fill="#ADB3BD"/></symbol><symbol fill="none" viewBox="0 0 24 24" id="pin-loading" xmlns="http://www.w3.org/2000/svg"><path d="M11.049 2.927c.3-.921 1.603-.921 1.902 0l1.519 4.674a1 1 0 00.95.69h4.915c.969 0 1.371 1.24.588 1.81l-3.976 2.888a1 1 0 00-.363 1.118l1.518 4.674c.3.922-.755 1.688-1.538 1.118l-3.976-2.888a1 1 0 00-1.176 0l-3.976 2.888c-.783.57-1.838-.197-1.538-1.118l1.518-4.674a1 1 0 00-.363-1.118l-3.976-2.888c-.783-.57-.38-1.81.588-1.81h4.914a1 1 0 00.951-.69l1.519-4.674z" fill="#F4F5F8"/></symbol><symbol fill="none" viewBox="0 0 30 42" id="taskList-empty" xmlns="http://www.w3.org/2000/svg"><path d="M6.588 25.196l-3.534 14.84c-.372 1.566 1.473 2.637 2.538 1.472l23.987-26.245c.915-1.001.24-2.665-1.082-2.665H19.58l3.342-10.525c.324-1.02-.4-2.073-1.423-2.073H7.5c-.67 0-1.258.466-1.442 1.142l-6 22.046c-.273 1.006.446 2.008 1.443 2.008h5.087zm9.488-11.522c-.324 1.02.399 2.073 1.423 2.073h7.48L7.332 35.055l2.632-11.052c.237-.994-.48-1.957-1.455-1.957h-5.02L8.631 3.15h10.786l-3.341 10.526z" fill="#FCB90D"/></symbol><symbol fill="none" viewBox="0 0 30 42" id="taskList-error" xmlns="http://www.w3.org/2000/svg"><g clip-path="url(#jclip0_6_1345)"><path d="M30 13.857a7.857 7.857 0 11-15.715 0 7.857 7.857 0 0115.715 0zm-7.857-5a.714.714 0 00-.715.714v5.715a.714.714 0 001.429 0V9.57a.714.714 0 00-.714-.714zm0 10.179a.893.893 0 100-1.786.893.893 0 000 1.786zm4.285 6.607v-3.546a9.31 9.31 0 002.143-1.54v5.086a4.643 4.643 0 01-4.643 4.643h-8.196l-7.163 5.358a1.786 1.786 0 01-2.855-1.43l-.001-3.928h-1.07A4.643 4.643 0 010 25.643V13.5a4.643 4.643 0 014.643-4.643h9.674A9.243 9.243 0 0013.305 11H4.643a2.5 2.5 0 00-2.5 2.5v12.143a2.5 2.5 0 002.5 2.5h3.212l.002 5.358 7.162-5.358h8.91a2.5 2.5 0 002.5-2.5z" fill="#E21414"/></g><defs><clipPath id="jclip0_6_1345"><path fill="#fff" d="M0 0h30v42H0z"/></clipPath></defs></symbol><symbol fill="none" viewBox="0 0 24 25" id="toggleButton-closed" xmlns="http://www.w3.org/2000/svg"><path fill-rule="evenodd" clip-rule="evenodd" d="M19 6.294H5a1 1 0 000 2h14a1 1 0 100-2zm0 5H5a1 1 0 100 2h14a1 1 0 100-2zm-14 5h14a1 1 0 110 2H5a1 1 0 110-2z" fill="#202656"/></symbol><symbol fill="none" viewBox="0 0 24 25" id="toggleButton-opened" xmlns="http://www.w3.org/2000/svg"><path fill-rule="evenodd" clip-rule="evenodd" d="M12 10.88l6.351-6.351a1.01 1.01 0 011.427-.013c.39.39.385 1.03-.013 1.427l-6.35 6.351 6.35 6.352a1.01 1.01 0 01.013 1.427 1.01 1.01 0 01-1.427-.013L12 13.709l-6.351 6.35a1.01 1.01 0 01-1.427.014 1.01 1.01 0 01.013-1.427l6.35-6.352-6.35-6.35a1.01 1.01 0 01-.013-1.428 1.01 1.01 0 011.427.013L12 10.88z" fill="#202656"/></symbol></svg>